<?xml version="1.0" standalone="no"?>
<!DOCTYPE svg PUBLIC "-//W3C//DTD SVG 20010904//EN"
 "http://www.w3.org/TR/2001/REC-SVG-20010904/DTD/svg10.dtd">
<svg version="1.0" xmlns="http://www.w3.org/2000/svg"
 width="162.000000pt" height="162.000000pt" viewBox="0 0 162.000000 162.000000"
 preserveAspectRatio="xMidYMid meet">
<metadata>
Created by potrace 1.14, written by Peter Selinger 2001-2017
</metadata>
<g transform="translate(0.000000,162.000000) scale(0.100000,-0.100000)"
fill="#000000" stroke="none">
<path d="M0 810 l0 -810 810 0 810 0 0 810 0 810 -810 0 -810 0 0 -810z m854
681 c15 -6 11 -9 -22 -19 -23 -7 -55 -24 -72 -39 -35 -29 -106 -166 -200 -383
-81 -188 -103 -232 -156 -306 -76 -108 -138 -144 -211 -125 -63 17 -79 39 -86
118 -29 311 158 606 457 718 92 35 245 54 290 36z m185 -37 c188 -70 339 -219
412 -409 46 -119 47 -159 9 -236 -96 -190 -213 -308 -534 -538 l-229 -163 -65
16 c-141 35 -280 124 -375 241 -44 55 -105 166 -122 224 l-8 25 32 -27 c63
-52 174 -28 247 54 53 59 139 205 188 319 92 213 191 428 207 449 11 14 41 38
67 52 53 30 71 29 171 -7z m447 -769 c-8 -69 -46 -170 -92 -246 -110 -182
-301 -303 -517 -330 -49 -6 -91 -9 -93 -6 -5 4 26 27 171 127 179 123 293 208
352 263 71 66 147 167 164 216 16 47 22 37 15 -24z"/>
</g>
</svg>
